<svg width="236" height="51" viewBox="0 0 236 51" fill="none" xmlns="http://www.w3.org/2000/svg">
<path d="M18.5505 26.392C16.7813 27.4072 10.7553 30.2926 10.7553 34.4188C10.7553 39.5958 15.0121 41.9646 18.9126 41.9646C22.8132 41.9646 27.1056 39.6017 27.1056 34.4188C27.1056 30.2926 20.9906 27.4132 19.257 26.392C18.9958 26.2436 18.8117 26.2495 18.5505 26.392ZM18.9601 1.24306C30.0504 1.24306 36.5216 8.48021 36.5216 15.943C36.5216 19.517 34.5803 22.8417 31.4456 25.1037C34.5209 27.7456 36.8541 30.5241 36.8541 34.9828C36.8541 42.5168 30.2107 49.6886 18.9601 49.6886C7.70961 49.6886 1.05428 43.1283 1.00085 34.9828C0.947416 30.5241 3.42313 27.7456 6.47472 25.1037C3.35782 22.8417 1.39269 19.5229 1.39269 15.943C1.39269 8.48021 7.82835 1.24306 18.9601 1.24306ZM18.6099 24.4566C18.8711 24.605 19.0551 24.6109 19.3164 24.4566C21.044 23.4413 27.1056 20.556 27.1056 16.4357C27.1056 11.2587 22.8607 8.88392 18.9601 8.88392C15.0596 8.88392 10.8146 11.2587 10.8146 16.4357C10.8146 20.556 16.8347 23.4473 18.6039 24.4566H18.6099Z" fill="#2DBA69"/>
<path d="M107.735 7.63119V39.4473C107.735 39.7264 107.961 39.952 108.24 39.952H113.856C114.135 39.952 114.361 39.7264 114.361 39.4473V26.2139C114.361 22.6101 116.255 19.7248 119.847 19.7248C123.16 19.7248 124.139 21.9808 124.139 25.2996V39.4533C124.139 39.7323 124.365 39.9579 124.644 39.9579H130.302C130.581 39.9579 130.806 39.7323 130.806 39.4533V24.2131C130.806 21.0487 130.029 18.5374 128.396 16.6672C125.273 13.0516 119.223 12.9804 115.169 16.0439C114.836 16.2932 114.361 16.0617 114.361 15.6461V1.1421C114.361 1.01742 114.207 0.952115 114.118 1.04117L107.866 7.32247C107.783 7.40559 107.741 7.51245 107.741 7.62525L107.735 7.63119Z" fill="#2DBA69"/>
<path d="M101.591 14.5062C101.46 14.5062 101.335 14.5596 101.246 14.6487L98.9131 16.9701H98.8775C96.6214 14.8624 93.8726 13.776 90.6785 13.776C83.5661 13.776 78.4544 19.5229 78.4544 26.2673C78.4544 33.4392 83.9223 38.6874 90.6785 38.6874C92.988 38.6874 95.0838 38.1056 96.942 36.9657C97.2686 36.7639 97.6901 36.9954 97.6901 37.3813C97.6901 40.9257 95.1016 43.1876 91.5572 43.1876C89.1468 43.1876 86.6295 42.1605 85.8162 39.9342H79.1787C80.4432 45.9602 85.549 48.9821 91.6997 48.9821C99.5009 48.9821 104.304 44.2385 104.304 36.4314V14.993C104.304 14.7259 104.084 14.5062 103.817 14.5062H101.585H101.591ZM97.7792 26.2376C97.7792 29.9898 95.0778 32.6911 91.4682 32.6911C87.526 32.6911 85.2106 29.7286 85.2106 26.2376C85.2106 22.5745 87.8347 19.8079 91.4682 19.8079C95.1016 19.8079 97.7792 22.4974 97.7792 26.2376Z" fill="#2DBA69"/>
<path d="M146.913 34.0566C145.103 34.0566 143.179 32.2874 143.179 30.251V20.3363C143.179 20.0572 143.405 19.8316 143.684 19.8316H149.805V14.4646H143.517C143.238 14.4646 143.013 14.239 143.013 13.96V8.11803C143.013 8.04085 142.948 7.97554 142.87 7.97554H142.478C142.443 7.97554 142.401 7.98741 142.378 8.0171L132.083 18.3652C132.083 18.3652 132.041 18.4305 132.041 18.4661V19.6773C132.041 19.7545 132.107 19.8198 132.184 19.8198H135.995C136.274 19.8198 136.5 20.0454 136.5 20.3244V31.1178C136.5 36.5857 139.73 39.9817 145.251 39.9817H149.959V34.0447H146.907L146.913 34.0566Z" fill="#2DBA69"/>
<path d="M200.827 13.8175C200.595 13.8175 200.394 13.9778 200.34 14.2034L199.711 16.8157V16.7919C197.496 14.7912 194.801 13.7819 191.672 13.7819C184.429 13.7819 178.676 19.0895 178.747 26.9857C178.813 34.1278 184.524 39.9936 191.666 39.9936C194.706 39.9936 197.378 38.9902 199.622 37.0429L200.079 39.5483C200.12 39.7858 200.328 39.9579 200.572 39.9579H204.876C205.155 39.9579 205.381 39.7323 205.381 39.4533V14.3103C205.381 14.0313 205.155 13.8057 204.876 13.8057H200.833L200.827 13.8175ZM198.891 26.8373C198.891 30.7735 196.03 33.6232 192.195 33.6232C188.359 33.6232 185.521 30.6904 185.521 26.7957C185.521 22.9011 188.609 19.9979 192.195 19.9979C196.101 19.9979 198.891 22.9961 198.891 26.8313V26.8373Z" fill="#2DBA69"/>
<path d="M235 26.8729C235 18.8105 229.033 13.776 222.081 13.776C219.006 13.776 216.376 14.7912 214.215 16.7266L213.188 14.0966C213.11 13.9006 212.926 13.776 212.719 13.776H209.162C208.883 13.776 208.658 14.0016 208.658 14.2806V48.9227H215.325V38.8952C215.325 38.5034 215.746 38.2659 216.085 38.4618C217.89 39.5127 219.896 40.0292 222.111 40.0292C225.768 40.0292 228.837 38.7587 231.313 36.277C233.753 33.7835 234.988 30.6547 234.988 26.8788L235 26.8729ZM228.262 26.8729C228.262 31.6106 224.539 33.6826 221.529 33.6826C217.64 33.6826 214.85 30.7616 214.85 26.8729C214.85 22.9842 217.712 20.081 221.553 20.081C225.394 20.081 228.262 22.9782 228.262 26.8729Z" fill="#2DBA69"/>
<path d="M170.026 29.5564C168.934 32.1033 167.016 33.6825 164.083 33.6825C160.438 33.6825 157.778 30.5716 157.778 26.8372C157.778 23.1029 160.473 20.0869 164.083 20.0869C166.654 20.0869 168.94 21.4702 170.05 23.9697H176.652C175.393 17.4806 170.109 13.8175 164.101 13.8175C156.828 13.8175 151.04 19.1667 151.04 26.8432C151.04 34.5197 156.591 40.0291 164.077 40.0291C170.542 40.0291 175.476 35.8436 176.735 29.5564H170.014H170.026Z" fill="#2DBA69"/>
<path d="M75.1059 13.9362H69.3233C69.0858 13.9362 68.8899 14.1321 68.8899 14.3696V39.5067C68.8899 39.7441 69.0858 39.9401 69.3233 39.9401H75.1059C75.3434 39.9401 75.5393 39.7441 75.5393 39.5067V14.3696C75.5393 14.1321 75.3434 13.9362 75.1059 13.9362Z" fill="#2DBA69"/>
<path d="M69.2996 11.3062H75.1059C75.3434 11.3062 75.5393 11.1102 75.5393 10.8728V5.13766C75.5393 5.01298 75.385 4.94768 75.2959 5.03673L69.2046 11.0568C69.1155 11.1459 69.1749 11.3002 69.3055 11.3002L69.2996 11.3062Z" fill="#2DBA69"/>
<path d="M66.0521 28.7965H48.0928C47.7662 28.7965 47.5288 29.1052 47.6059 29.4198C48.3065 32.3349 50.3548 34.021 53.4835 34.021C55.5437 34.021 57.4791 33.1067 58.5537 31.385C58.6309 31.2603 58.7734 31.1831 58.9218 31.1831H65.6958C63.7604 36.8054 58.9515 40.0292 53.442 40.0292C46.4007 40.0292 40.6894 34.1456 40.6894 26.8907C40.6894 19.6357 46.4007 13.7641 53.442 13.7641C60.4832 13.7641 66.1827 19.6476 66.1827 26.8907C66.1827 27.5378 66.1411 28.1731 66.0521 28.7965ZM58.8446 24.1716C59.1949 24.1716 59.4442 23.8213 59.3136 23.4888C58.3459 20.9597 56.3095 19.4754 53.5132 19.4754C50.7169 19.4754 48.7399 21.0012 47.885 23.5066C47.7722 23.8332 48.0215 24.1716 48.3599 24.1716H58.8387H58.8446Z" fill="#2DBA69"/>
</svg>
