<?xml version="1.0" encoding="UTF-8"?>
<svg id="Layer_1" data-name="Layer 1" xmlns="http://www.w3.org/2000/svg" version="1.1" viewBox="0 0 372 78">
  <defs>
    <style>
      .cls-1 {
        fill: #fff;
        stroke-width: 0px;
      }
    </style>
  </defs>
  <path class="cls-1" d="M106.8,26v33.8h-9.4V26h-11.8v-8.1h33.1v8.1s-11.9,0-11.9,0ZM125.5,17.9h9.4v41.9h-9.4s0-41.9,0-41.9ZM164.4,51.5c4.6,0,8.4-1.8,11.3-5.5l6,6.2c-4.8,5.4-10.4,8-16.8,8s-11.8-2-16-6.1-6.3-9.2-6.3-15.4,2.1-11.4,6.4-15.6c4.3-4.2,9.5-6.2,15.6-6.2s12.6,2.6,17.3,7.9l-5.8,6.6c-3-3.7-6.6-5.5-11-5.5s-6.5,1.1-9,3.4-3.7,5.4-3.7,9.3,1.2,7,3.5,9.4,5.2,3.5,8.5,3.5ZM189.1,17.9h9.4v17.2l15.8-17.2h11.6l-16.7,18.5c1.4,2,4.1,5.7,8,11.2s6.8,9.5,8.7,12.2h-10.9l-12.3-16.6-4.2,4.7v11.9h-9.4V17.9h0ZM269.2,33.4l-11.3,22.9h-5.6l-11.3-22.9v26.4h-9.4V17.9h12.7l10.8,23,10.9-23h12.6v41.9h-9.4v-26.4h0ZM288.9,17.9h9.4v41.9h-9.4V17.9ZM308.6,59.8V17.9h9.4v33.6h17.9v8.3s-27.3,0-27.3,0ZM342.7,59.8V17.9h9.4v33.6h17.9v8.3s-27.3,0-27.3,0Z"/>
  <path class="cls-1" d="M17.7,30.9c0-.8.6-1.8,1.3-2.2l13.8-8c.7-.4,1.8-.4,2.5,0l12.1,7,17-9.8c0-.1-.2-.2-.4-.3L37.1,1.7c-1.7-1-4.5-1-6.1,0L4.1,17.6c-1.7,1-3.1,3.5-3.1,5.5v31.3l16.7-9.6s0-13.9,0-13.9ZM50.3,33v13.9c0,.8-.6,1.8-1.3,2.2l-13.8,8c-.7.4-1.8.4-2.5,0l-12.1-7L3.6,59.9c0,0,.2.2.4.3l26.9,15.8c1.7,1,4.5,1,6.1,0l27-15.8c1.7-1,3.1-3.5,3.1-5.5v-31.3l-16.8,9.6Z"/>
  <metadata>
    <sfw xmlns="http://ns.adobe.com/SaveForWeb/1.0/">
      <slices/>
      <sliceSourceBounds x="1" y="1.25" width="369" height="75.8" bottomLeftOrigin="true"/>
    </sfw>
  </metadata>
</svg>